<svg xmlns="http://www.w3.org/2000/svg" width="20" height="28" viewBox="0 0 20 28" shape-rendering="crispEdges">
  <rect width="20" height="28" fill="none"/>
  <!-- Shadow -->
  <rect x="1" y="26" width="18" height="2" fill="#0b0b0b" opacity="0.25"/>
  <!-- Boots -->
  <rect x="2" y="22" width="6" height="4" fill="#5c3b1e"/>
  <rect x="12" y="22" width="6" height="4" fill="#5c3b1e"/>
  <!-- Overalls -->
  <rect x="4" y="12" width="12" height="12" fill="#1e64c8"/>
  <rect x="6" y="12" width="2" height="4" fill="#ffd249"/>
  <rect x="12" y="12" width="2" height="4" fill="#ffd249"/>
  <!-- Shirt -->
  <rect x="3" y="8" width="14" height="6" fill="#e03a2f"/>
  <rect x="1" y="10" width="3" height="4" fill="#e03a2f"/>
  <rect x="16" y="10" width="3" height="4" fill="#e03a2f"/>
  <!-- Face -->
  <rect x="5" y="4" width="10" height="6" fill="#f2c8a0"/>
  <rect x="6" y="6" width="2" height="2" fill="#1a1a1a"/>
  <rect x="12" y="6" width="2" height="2" fill="#1a1a1a"/>
  <!-- Cap -->
  <rect x="3" y="2" width="14" height="3" fill="#b71d1a"/>
  <rect x="4" y="1" width="10" height="2" fill="#da2a24"/>
  <rect x="2" y="3" width="5" height="1" fill="#da2a24"/>
</svg>
